
        <svg
            xmlns="http://www.w3.org/2000/svg"
            version="1.1"
            width="200"
            height="200"
            viewBox="0 0 500 500"
        >
            
        <rect
            width="500"
            height="500"
            rx="250"
            fill="#ece2e1"
        />
    <path fill="#b18272" d="M440.7 280.2c0 6.7-.4 13.1-1.2 19.2-1.1 7.9-2.9 15.2-5.3 21.9a86.3 86.3 0 01-20.7 32.6C393 374.3 362 385.2 325 390.6c-23 3.3-48.3 4.5-74.9 4.5a529 529 0 01-75-4.6c-68-9.8-115.7-38.4-115.7-110.3 0-96.3 85.4-174.3 190.7-174.3 95.7 0 175 64.4 188.6 148.3a161 161 0 012.1 26z"/><path fill="#936454" d="M235 161.3c14.4 27.5 0 71-41.1 115.2-31.8 34.1-86.6 16.8-101-10.8s7.5-67.4 48.9-89 78.9-43 93.3-15.4z"/><path fill="#936454" d="M169 122.4C124 57.5 37.6 128 57 176.8c22.1 31.3 49.5 25.6 82.5-20.4a36 36 0 006.7-22.5c7.6-4.4 15.1-8.3 22.8-11.5zM331 122.4c44.9-64.9 131.4 5.7 112 54.4-22.1 31.3-49.5 25.6-82.5-20.4a36 36 0 01-6.7-22.5c-7.6-4.4-15.1-8.3-22.8-11.5z"/><path fill="#15212a" d="M146.2 134c-.8-14-5-23.9-13.5-28 11.2-1 21.6 4.6 30.8 18.8l-17.3 9.1zM353.8 134c.8-14 5-23.9 13.5-28-11.2-1-21.6 4.6-30.8 18.8l17.3 9.1z"/><path fill="#936454" d="M316.5 341.28c-6.67 6.12-14.33 9.99-21.58 11.43l-.36.24-1.63 1.01c-11.86 7.12-26.8 11.37-43.04 11.37-16.53 0-31.7-4.4-43.66-11.75-.51-.31-1.02-.63-1.51-.96l-.34-.23c-7.05-1.54-14.43-5.36-20.88-11.29-14.57-13.4-18.84-32.48-9.52-42.63a19.02 19.02 0 0 1 10.68-5.72h.01c9.45-1.01 20.45 3.37 32.59 11.61-11.89-11.69-21.25-15.66-29.64-16.7 11.51-17.41 35.06-29.35 62.28-29.35 27.32 0 50.95 12.03 62.42 29.55-8.37 1.04-17.72 5.04-29.57 16.68 12.13-8.23 23.14-12.61 32.58-11.61h.02c4.19.8 7.9 2.68 10.68 5.72 9.31 10.14 5.05 29.22-9.53 42.63z"/> <path fill="#15212a" d="M194.37 301.88s18.83 13.68 21.26 20.7c1.87 5.39 2.8 12.87-4.48 16.23-7.27 3.36-12.72 1.91-16.79-3.36-4.11-5.33-10.83-42.37.01-33.57zM305.64 302.06s-18.68 13.37-21.26 20.7c-1.9 5.38-2.8 12.87 4.48 16.23 7.27 3.36 12.05 1.62 16.79-3.36 4.63-4.87 10.82-42.37-.01-33.57zM294.92 352.71l-1.99 1.25c-16.29 3.18-26.04.33-34.81-2.98-5.06-1.92-10.71-1.47-16-.38-9.85 2.02-18.62 5.91-35.88 2.98a73.1 73.1 0 0 1-1.86-1.19c6.3.59 16.16 1.36 21.54 0 8.52-2.16 12.2-7.52 23.98-7.52 11.77 0 11.05 4.08 20.29 7.52 6.02 2.23 17.63 1.16 24.73.32z"/> <circle fill="#15212a" cx="168.62" cy="248.28" r="15.49"/><circle fill="#fff" cx="163.62" cy="242.97" r="4.95"/><circle fill="#15212a" cx="331.04" cy="248.28" r="15.49"/><circle fill="#fff" cx="336.04" cy="242.97" r="4.95"/><path fill="#15212a" d="M139.8 203c-1 0-2-.3-2.8-.9a5 5 0 01-1.3-7c10.5-15.5 25.8-20.4 45.7-14.5a5 5 0 11-2.9 9.6c-15.6-4.7-26.6-1.3-34.5 10.6a5 5 0 01-4.2 2.2zM361.4 203a5 5 0 01-4.2-2.2c-8-12-19-15.3-34.5-10.6a5 5 0 11-2.9-9.6c19.9-6 35.2-1 45.7 14.6a5 5 0 01-4.1 7.8z"/>
        <path
            d="M250,0a250,250 0 1,1 0,500"
            fill="#15212a"
            fill-opacity="0.08"
        />
    
        </svg>
    