
        <svg
            xmlns="http://www.w3.org/2000/svg"
            version="1.1"
            width="200"
            height="200"
            viewBox="0 0 500 500"
        >
            
        <rect
            width="500"
            height="500"
            rx="250"
            fill="#b5f4bc"
        />
    <path fill="#d7b89c" d="M440.7 280.2c0 6.7-.4 13.1-1.2 19.2-1.1 7.9-2.9 15.2-5.3 21.9a86.3 86.3 0 01-20.7 32.6C393 374.3 362 385.2 325 390.6c-23 3.3-48.3 4.5-74.9 4.5a529 529 0 01-75-4.6c-68-9.8-115.7-38.4-115.7-110.3 0-96.3 85.4-174.3 190.7-174.3 95.7 0 175 64.4 188.6 148.3a161 161 0 012.1 26z"/><path fill="#d7b89c" d="M132.3 143a185.8 185.8 0 00-42.6 42.7c-28.4-20.8-36.5-43-31.4-66.4a86.2 86.2 0 018.4-22.1c33.5 4 56.8 18 65.6 45.9zM409.9 185.1a176.3 176.3 0 00-43.1-42.7c9-27.4 32.1-41.2 65.4-45.2 4 7.5 6.8 14.8 8.3 22.1 5.1 23.1-2.8 45.2-30.6 65.8z"/><path fill="#fec3aa" d="M103.9 168.2c-5.1 5.5-9.9 11.4-14.2 17.5-28.4-20.8-36.5-43-31.4-66.4 6.8 2.4 16.2 6.7 27 14.4a48.3 48.3 0 0118.6 34.5zM409.9 185.1c-4.5-6.3-9.4-12.3-14.7-18a47.9 47.9 0 0118.4-33.4c10.8-7.7 20.1-12 27-14.4 5 23.1-3 45.2-30.7 65.8z"/><path fill="#fef6f4" d="M332 100.7c-10.2-27.5-29.9-29.9-53.6-21.5C273.2 72.5 266 67 250 66.3c-15.9.6-23.2 6.2-28.4 13-23.8-8.5-43.4-6.1-53.5 21.4-39 19.8-5.9 84.7 33 64.8 10.9 12 24.4 19.1 48.9 5.7 24.5 13.4 38 6.3 48.9-5.7 38.9 19.9 72-45 33-64.8z"/><path fill="#b99a7e" d="M316.5 341.28c-6.67 6.12-14.33 9.99-21.58 11.43l-.36.24-1.63 1.01c-11.86 7.12-26.8 11.37-43.04 11.37-16.53 0-31.7-4.4-43.66-11.75-.51-.31-1.02-.63-1.51-.96l-.34-.23c-7.05-1.54-14.43-5.36-20.88-11.29-14.57-13.4-18.84-32.48-9.52-42.63a19.02 19.02 0 0 1 10.68-5.72h.01c9.45-1.01 20.45 3.37 32.59 11.61-11.89-11.69-21.25-15.66-29.64-16.7 11.51-17.41 35.06-29.35 62.28-29.35 27.32 0 50.95 12.03 62.42 29.55-8.37 1.04-17.72 5.04-29.57 16.68 12.13-8.23 23.14-12.61 32.58-11.61h.02c4.19.8 7.9 2.68 10.68 5.72 9.31 10.14 5.05 29.22-9.53 42.63z"/> <path fill="#15212a" d="M194.37 301.88s18.83 13.68 21.26 20.7c1.87 5.39 2.8 12.87-4.48 16.23-7.27 3.36-12.72 1.91-16.79-3.36-4.11-5.33-10.83-42.37.01-33.57zM305.64 302.06s-18.68 13.37-21.26 20.7c-1.9 5.38-2.8 12.87 4.48 16.23 7.27 3.36 12.05 1.62 16.79-3.36 4.63-4.87 10.82-42.37-.01-33.57zM294.92 352.71l-1.99 1.25c-16.29 3.18-26.04.33-34.81-2.98-5.06-1.92-10.71-1.47-16-.38-9.85 2.02-18.62 5.91-35.88 2.98a73.1 73.1 0 0 1-1.86-1.19c6.3.59 16.16 1.36 21.54 0 8.52-2.16 12.2-7.52 23.98-7.52 11.77 0 11.05 4.08 20.29 7.52 6.02 2.23 17.63 1.16 24.73.32z"/> <circle fill="#15212a" cx="168.96" cy="262.77" r="18.38"/><circle fill="#fff" cx="163.12" cy="256.93" r="5.84"/><circle fill="#15212a" cx="331.04" cy="262.77" r="18.38"/><circle fill="#fff" cx="325.2" cy="256.93" r="5.84"/><path fill="#15212a" d="M333 196.7h-.4l-27.6-2.1a5 5 0 01.8-10l27.5 2a5 5 0 01-.3 10zM166.6 196.7h.4l27.5-2.1a5 5 0 00-.7-10l-27.6 2a5 5 0 00.4 10z"/>
        <path
            d="M250,0a250,250 0 1,1 0,500"
            fill="#15212a"
            fill-opacity="0.08"
        />
    
        </svg>
    